<mxfile host="app.diagrams.net" modified="2024-04-06T16:05:19.416Z" agent="Mozilla/5.0 (Windows NT 10.0; Win64; x64; rv:124.0) Gecko/20100101 Firefox/124.0" version="24.2.2" etag="_pbmgYroYIrKIShoe84I" type="github">
  <diagram name="Page-1" id="yBzHZlPcZM6gsqFL8v2z">
    <mxGraphModel>
      <root>
        <mxCell id="0" />
        <mxCell id="1" parent="0" />
      </root>
    </mxGraphModel>
  </diagram>
</mxfile>
